<svg width="16" height="16" viewBox="0 0 16 16" fill="none" xmlns="http://www.w3.org/2000/svg">
<path d="M3.15176 6.19201C3.30356 6.29912 3.76114 6.61726 4.52452 7.14626C5.28792 7.67525 5.87273 8.08257 6.27899 8.36822C6.32363 8.39953 6.41845 8.4676 6.56352 8.57251C6.70861 8.67749 6.82917 8.76233 6.9251 8.82704C7.0211 8.89173 7.13715 8.9643 7.27337 9.04463C7.40955 9.12489 7.53792 9.18526 7.65845 9.22523C7.77901 9.26552 7.89061 9.28548 7.99327 9.28548H8H8.00675C8.10941 9.28548 8.22106 9.2655 8.34161 9.22523C8.4621 9.18526 8.59059 9.12482 8.72665 9.04463C8.86278 8.9642 8.97883 8.8917 9.07483 8.82704C9.17083 8.76233 9.29129 8.67749 9.43643 8.57251C9.58147 8.4675 9.67642 8.39953 9.72105 8.36822C10.1317 8.08257 11.1764 7.35709 12.8549 6.19187C13.1808 5.96429 13.4531 5.68968 13.6718 5.36823C13.8907 5.04693 14 4.70986 14 4.35722C14 4.06254 13.8939 3.81028 13.6818 3.60048C13.4698 3.39063 13.2186 3.28577 12.9285 3.28577H3.07138C2.72766 3.28577 2.46314 3.40182 2.27787 3.63393C2.09262 3.86608 2 4.15626 2 4.50445C2 4.78569 2.12281 5.09046 2.36831 5.41857C2.61378 5.7467 2.87502 6.00453 3.15176 6.19201Z" fill="#8F8F8F"/>
<path d="M13.3303 6.90843C11.8661 7.89941 10.7544 8.66957 9.99555 9.21874C9.74109 9.40616 9.53467 9.55247 9.37614 9.65731C9.21761 9.76223 9.00678 9.86937 8.74333 9.97869C8.47999 10.0882 8.23456 10.1428 8.00684 10.1428H8.00001H7.99328C7.76561 10.1428 7.52004 10.0882 7.25669 9.97869C6.99334 9.86937 6.78237 9.76223 6.62388 9.65731C6.46545 9.55247 6.25895 9.40616 6.00452 9.21874C5.40181 8.7768 4.29245 8.0066 2.67641 6.90843C2.42188 6.7389 2.19643 6.54458 2 6.32587V11.6427C2 11.9375 2.10487 12.1896 2.31471 12.3994C2.52451 12.6093 2.77679 12.7143 3.07145 12.7143H12.9286C13.2232 12.7143 13.4755 12.6093 13.6853 12.3994C13.8952 12.1895 14 11.9375 14 11.6427V6.32587C13.808 6.54005 13.5849 6.73438 13.3303 6.90843Z" fill="#8F8F8F"/>
</svg>
