<svg width="213" height="20" viewBox="0 0 213 20" fill="none" xmlns="http://www.w3.org/2000/svg">
<g clip-path="url(#clip0_7037_171)">
<path d="M10.0974 15.7828H4.58813L3.70159 17.8856H0L7.33986 2.00562L14.6855 17.8856H10.9839L10.0974 15.7828ZM8.88268 12.9085L7.33986 9.23419L5.79705 12.9085H8.88268Z" fill="black"/>
<path d="M18.4849 9.94862C18.4849 5.54862 22.0714 2.01147 26.5386 2.01147C28.7377 2.01147 30.7583 2.89147 32.3587 4.53719L30.0272 6.85147C29.0831 5.84005 27.9087 5.3029 26.5386 5.3029C23.879 5.3029 21.8008 7.34862 21.8008 9.94862C21.8008 12.5486 23.8848 14.5943 26.5214 14.5943C27.4827 14.5943 28.3693 14.3258 29.1407 13.8115V11.5715H26.1357V8.32005H32.2436V15.6629C30.5856 17.08 28.6801 17.88 26.5617 17.88C22.0714 17.8858 18.4849 14.3429 18.4849 9.94862Z" fill="black"/>
<path d="M47.4932 15.7828H41.984L41.0975 17.8856H37.3959L44.7357 2.00562L52.0756 17.8856H48.374L47.4932 15.7828ZM46.2786 12.9085L44.7357 9.23419L43.1929 12.9085H46.2786Z" fill="black"/>
<path d="M57.3431 2.19995H60.6187V17.6914H57.3431V2.19995Z" fill="black"/>
<path d="M70.526 9.42857V17.6914H67.2504V1.81714L76.1734 10.5029V2.2H79.449V18.0743L70.526 9.42857Z" fill="black"/>
<path d="M102.735 0H106.339L98.0146 19.8914H94.4108L102.735 0Z" fill="black"/>
<path d="M121.571 2.19995H131.594V5.45138H124.853V8.31995H130.828V11.5714H124.853V17.6914H121.577V2.19995H121.571Z" fill="black"/>
<path d="M145.491 15.7829H139.981L139.095 17.8858H135.393L142.733 2.01147L150.073 17.8858H146.371L145.491 15.7829ZM144.276 12.9086L142.733 9.23433L141.19 12.9086H144.276Z" fill="black"/>
<path d="M153.665 13.9085L156.693 12.5485C156.831 13.8285 157.712 14.6513 158.869 14.6513C159.928 14.6513 160.66 13.9599 160.66 12.9485C160.66 10.4228 154.534 11.1885 154.534 6.29133C154.534 3.78276 156.382 2.00562 158.967 2.00562C161.011 2.00562 162.703 3.17133 163.342 4.97133L160.493 6.23419C160.262 5.56561 159.721 5.10847 159.03 5.10847C158.282 5.10847 157.798 5.56561 157.798 6.21704C157.798 8.37704 163.947 7.84561 163.947 12.9885C163.947 15.8399 161.845 17.8856 158.956 17.8856C156.4 17.8856 154.206 16.257 153.665 13.9085Z" fill="black"/>
<path d="M172.19 5.45138H168.374V2.19995H179.26V5.45138H175.466V17.6914H172.19V5.45138Z" fill="black"/>
<path d="M184.89 2.19995H194.912V5.45138H188.171V8.31995H194.147V11.5714H188.171V14.44H194.912V17.6914H184.89V2.19995Z" fill="black"/>
<path d="M208.982 17.6914L205.936 12.24H204.336V17.6914H201.06V2.19995H206.978C209.851 2.19995 212.027 4.34281 212.027 7.21138C212.027 9.25709 210.951 10.92 209.293 11.7257L212.781 17.6914H208.982ZM204.342 8.98852H206.984C208.061 8.98852 208.757 8.29709 208.757 7.21138C208.757 6.14281 208.066 5.45138 206.984 5.45138H204.342V8.98852Z" fill="black"/>
</g>
<defs>
<clipPath id="clip0_7037_171">
<rect width="213" height="20" fill="white"/>
</clipPath>
</defs>
</svg>
